<?xml version="1.0" encoding="UTF-8" standalone="no"?>
<!DOCTYPE svg PUBLIC "-//W3C//DTD SVG 1.1//EN"
 "http://www.w3.org/Graphics/SVG/1.1/DTD/svg11.dtd">
<!-- Generated by graphviz version 2.38.0 (20140413.2041)
 -->
<!-- Title: rendering_loop Pages: 1 -->
<svg width="1815pt" height="335pt"
 viewBox="0.00 0.00 1814.53 335.00" xmlns="http://www.w3.org/2000/svg" xmlns:xlink="http://www.w3.org/1999/xlink">
<g id="graph0" class="graph" transform="scale(1 1) rotate(0) translate(4 331)">
<title>rendering_loop</title>
<polygon fill="white" stroke="none" points="-4,4 -4,-331 1810.53,-331 1810.53,4 -4,4"/>
<text text-anchor="middle" x="903.265" y="-311.8" font-family="Helvetica,sans-Serif" font-size="14.00">Rendering&#45;Loop</text>
<!-- functionBox -->
<g id="node1" class="node"><title>functionBox</title>
<polygon fill="none" stroke="black" points="725.788,-0.5 725.788,-36.5 842.604,-36.5 842.604,-0.5 725.788,-0.5"/>
<text text-anchor="middle" x="784.196" y="-14.3" font-family="Courier,monospace" font-size="14.00">functionName</text>
</g>
<!-- functionText -->
<g id="node2" class="node"><title>functionText</title>
<text text-anchor="middle" x="218.034" y="-61.3" font-family="Courier,monospace" font-size="14.00">JS Function</text>
</g>
<!-- funcA -->
<g id="node3" class="node"><title>funcA</title>
<polygon fill="none" stroke="black" points="551.925,-47.5 551.925,-83.5 609.931,-83.5 609.931,-47.5 551.925,-47.5"/>
<text text-anchor="middle" x="580.928" y="-61.3" font-family="Courier,monospace" font-size="14.00">funcA</text>
</g>
<!-- funcB -->
<g id="node4" class="node"><title>funcB</title>
<polygon fill="none" stroke="black" points="894.209,-47.5 894.209,-83.5 952.216,-83.5 952.216,-47.5 894.209,-47.5"/>
<text text-anchor="middle" x="923.213" y="-61.3" font-family="Courier,monospace" font-size="14.00">funcB</text>
</g>
<!-- funcA&#45;&gt;funcB -->
<g id="edge1" class="edge"><title>funcA&#45;&gt;funcB</title>
<path fill="none" stroke="black" d="M610.064,-65.5C670.951,-65.5 814.992,-65.5 884.026,-65.5"/>
<polygon fill="black" stroke="black" points="884.044,-69.0001 894.043,-65.5 884.043,-62.0001 884.044,-69.0001"/>
</g>
<!-- funcCalling -->
<g id="node5" class="node"><title>funcCalling</title>
<text text-anchor="middle" x="218.034" y="-115.3" font-family="Courier,monospace" font-size="14.00">FuncA periodically calls FuncB</text>
</g>
<!-- funcAOnce -->
<g id="node6" class="node"><title>funcAOnce</title>
<polygon fill="none" stroke="black" points="551.925,-89.5 551.925,-125.5 609.931,-125.5 609.931,-89.5 551.925,-89.5"/>
<text text-anchor="middle" x="580.928" y="-103.3" font-family="Courier,monospace" font-size="14.00">funcA</text>
</g>
<!-- funcBOnce -->
<g id="node7" class="node"><title>funcBOnce</title>
<polygon fill="none" stroke="black" points="894.209,-89.5 894.209,-125.5 952.216,-125.5 952.216,-89.5 894.209,-89.5"/>
<text text-anchor="middle" x="923.213" y="-103.3" font-family="Courier,monospace" font-size="14.00">funcB</text>
</g>
<!-- funcAOnce&#45;&gt;funcBOnce -->
<g id="edge2" class="edge"><title>funcAOnce&#45;&gt;funcBOnce</title>
<path fill="none" stroke="black" stroke-dasharray="1,5" d="M610.064,-107.5C670.951,-107.5 814.992,-107.5 884.026,-107.5"/>
<polygon fill="black" stroke="black" points="884.044,-111 894.043,-107.5 884.043,-104 884.044,-111"/>
</g>
<!-- funcCallingOnce -->
<g id="node8" class="node"><title>funcCallingOnce</title>
<text text-anchor="middle" x="218.034" y="-169.3" font-family="Courier,monospace" font-size="14.00">FuncA calls FuncB once on component (page) setup</text>
</g>
<!-- funcAListener -->
<g id="node9" class="node"><title>funcAListener</title>
<polygon fill="none" stroke="black" points="551.925,-131.5 551.925,-167.5 609.931,-167.5 609.931,-131.5 551.925,-131.5"/>
<text text-anchor="middle" x="580.928" y="-145.3" font-family="Courier,monospace" font-size="14.00">funcA</text>
</g>
<!-- funcBListener -->
<g id="node10" class="node"><title>funcBListener</title>
<polygon fill="none" stroke="black" points="894.209,-131.5 894.209,-167.5 952.216,-167.5 952.216,-131.5 894.209,-131.5"/>
<text text-anchor="middle" x="923.213" y="-145.3" font-family="Courier,monospace" font-size="14.00">funcB</text>
</g>
<!-- funcAListener&#45;&gt;funcBListener -->
<g id="edge3" class="edge"><title>funcAListener&#45;&gt;funcBListener</title>
<path fill="none" stroke="black" stroke-dasharray="5,2" d="M610.064,-149.5C670.951,-149.5 814.992,-149.5 884.026,-149.5"/>
<polygon fill="black" stroke="black" points="884.044,-153 894.043,-149.5 884.043,-146 884.044,-153"/>
</g>
<!-- funcCallingListener -->
<g id="node11" class="node"><title>funcCallingListener</title>
<text text-anchor="middle" x="218.034" y="-223.3" font-family="Courier,monospace" font-size="14.00">FuncA starts listener with callback function FuncB</text>
</g>
<!-- start -->
<g id="node12" class="node"><title>start</title>
<ellipse fill="red" stroke="black" cx="580.928" cy="-222.5" rx="126.719" ry="18"/>
<text text-anchor="middle" x="580.928" y="-218.3" font-family="Courier,monospace" font-size="14.00">(Ember hook) didRender</text>
</g>
<!-- initRendering -->
<g id="node13" class="node"><title>initRendering</title>
<polygon fill="none" stroke="black" points="860.604,-268.5 860.604,-304.5 985.822,-304.5 985.822,-268.5 860.604,-268.5"/>
<text text-anchor="middle" x="923.213" y="-282.3" font-family="Courier,monospace" font-size="14.00">initRendering</text>
</g>
<!-- start&#45;&gt;initRendering -->
<g id="edge4" class="edge"><title>start&#45;&gt;initRendering</title>
<path fill="none" stroke="black" stroke-dasharray="1,5" d="M658.294,-236.863C715.876,-247.693 794.297,-262.442 850.669,-273.044"/>
<polygon fill="black" stroke="black" points="850.1,-276.499 860.575,-274.907 851.394,-269.619 850.1,-276.499"/>
</g>
<!-- initListener -->
<g id="node15" class="node"><title>initListener</title>
<polygon fill="none" stroke="black" points="864.805,-173.5 864.805,-209.5 981.621,-209.5 981.621,-173.5 864.805,-173.5"/>
<text text-anchor="middle" x="923.213" y="-187.3" font-family="Courier,monospace" font-size="14.00">initListener</text>
</g>
<!-- start&#45;&gt;initListener -->
<g id="edge5" class="edge"><title>start&#45;&gt;initListener</title>
<path fill="none" stroke="black" stroke-dasharray="1,5" d="M688.196,-212.819C742.518,-207.87 807.001,-201.996 854.509,-197.668"/>
<polygon fill="black" stroke="black" points="855.04,-201.134 864.681,-196.741 854.405,-194.163 855.04,-201.134"/>
</g>
<!-- populateScene -->
<g id="node14" class="node"><title>populateScene</title>
<polygon fill="none" stroke="black" points="1681.31,-237.5 1681.31,-273.5 1806.53,-273.5 1806.53,-237.5 1681.31,-237.5"/>
<text text-anchor="middle" x="1743.92" y="-251.3" font-family="Courier,monospace" font-size="14.00">populateScene</text>
</g>
<!-- initRendering&#45;&gt;populateScene -->
<g id="edge6" class="edge"><title>initRendering&#45;&gt;populateScene</title>
<path fill="none" stroke="black" stroke-dasharray="1,5" d="M985.881,-293.312C991.937,-293.796 997.995,-294.208 1003.82,-294.5 1070.95,-297.864 1087.86,-296.178 1155.05,-294.5 1341.46,-289.843 1560.51,-272.04 1671.17,-262.177"/>
<polygon fill="black" stroke="black" points="1671.56,-265.655 1681.21,-261.277 1670.94,-258.683 1671.56,-265.655"/>
</g>
<!-- initInteraction -->
<g id="node20" class="node"><title>initInteraction</title>
<polygon fill="none" stroke="blue" points="1173.05,-241.5 1173.05,-277.5 1315.07,-277.5 1315.07,-241.5 1173.05,-241.5"/>
<text text-anchor="middle" x="1244.06" y="-255.3" font-family="Courier,monospace" font-size="14.00">initInteraction</text>
</g>
<!-- initRendering&#45;&gt;initInteraction -->
<g id="edge7" class="edge"><title>initRendering&#45;&gt;initInteraction</title>
<path fill="none" stroke="blue" stroke-dasharray="1,5" d="M986.096,-285.245C1032.67,-283.825 1098.01,-280.821 1155.05,-274.5 1157.7,-274.206 1160.39,-273.884 1163.11,-273.538"/>
<polygon fill="blue" stroke="blue" points="1163.58,-277.006 1173.02,-272.195 1162.64,-270.07 1163.58,-277.006"/>
</g>
<!-- onReSetupScene -->
<g id="node16" class="node"><title>onReSetupScene</title>
<polygon fill="none" stroke="black" points="1177.25,-197.5 1177.25,-233.5 1310.87,-233.5 1310.87,-197.5 1177.25,-197.5"/>
<text text-anchor="middle" x="1244.06" y="-211.3" font-family="Courier,monospace" font-size="14.00">onReSetupScene</text>
</g>
<!-- initListener&#45;&gt;onReSetupScene -->
<g id="edge8" class="edge"><title>initListener&#45;&gt;onReSetupScene</title>
<path fill="none" stroke="black" stroke-dasharray="5,2" d="M981.953,-195.846C1033.84,-199.752 1110.39,-205.514 1167.21,-209.791"/>
<polygon fill="black" stroke="black" points="1166.98,-213.284 1177.22,-210.544 1167.51,-206.303 1166.98,-213.284"/>
</g>
<!-- onUpdated -->
<g id="node17" class="node"><title>onUpdated</title>
<polygon fill="none" stroke="black" points="1198.25,-155.5 1198.25,-191.5 1289.86,-191.5 1289.86,-155.5 1198.25,-155.5"/>
<text text-anchor="middle" x="1244.06" y="-169.3" font-family="Courier,monospace" font-size="14.00">onUpdated</text>
</g>
<!-- initListener&#45;&gt;onUpdated -->
<g id="edge9" class="edge"><title>initListener&#45;&gt;onUpdated</title>
<path fill="none" stroke="black" stroke-dasharray="5,2" d="M981.953,-188.24C1040.53,-184.934 1130.54,-179.852 1188.09,-176.603"/>
<polygon fill="black" stroke="black" points="1188.31,-180.096 1198.1,-176.038 1187.91,-173.108 1188.31,-180.096"/>
</g>
<!-- onResized -->
<g id="node18" class="node"><title>onResized</title>
<polygon fill="none" stroke="black" points="1198.25,-113.5 1198.25,-149.5 1289.86,-149.5 1289.86,-113.5 1198.25,-113.5"/>
<text text-anchor="middle" x="1244.06" y="-127.3" font-family="Courier,monospace" font-size="14.00">onResized</text>
</g>
<!-- initListener&#45;&gt;onResized -->
<g id="edge10" class="edge"><title>initListener&#45;&gt;onResized</title>
<path fill="none" stroke="black" stroke-dasharray="5,2" d="M982.02,-179.766C989.355,-178.311 996.762,-176.859 1003.82,-175.5 1066.93,-163.356 1139.54,-150.102 1188.06,-141.349"/>
<polygon fill="black" stroke="black" points="1188.82,-144.769 1198.04,-139.551 1187.58,-137.88 1188.82,-144.769"/>
</g>
<!-- cleanAndUpdateScene -->
<g id="node19" class="node"><title>cleanAndUpdateScene</title>
<polygon fill="none" stroke="black" points="1468.69,-195.5 1468.69,-231.5 1644.31,-231.5 1644.31,-195.5 1468.69,-195.5"/>
<text text-anchor="middle" x="1556.5" y="-209.3" font-family="Courier,monospace" font-size="14.00">cleanAndUpdateScene</text>
</g>
<!-- onReSetupScene&#45;&gt;cleanAndUpdateScene -->
<g id="edge11" class="edge"><title>onReSetupScene&#45;&gt;cleanAndUpdateScene</title>
<path fill="none" stroke="black" d="M1310.89,-215.076C1353.76,-214.8 1410.43,-214.435 1458.43,-214.125"/>
<polygon fill="black" stroke="black" points="1458.56,-217.625 1468.53,-214.06 1458.51,-210.625 1458.56,-217.625"/>
</g>
<!-- onUpdated&#45;&gt;cleanAndUpdateScene -->
<g id="edge12" class="edge"><title>onUpdated&#45;&gt;cleanAndUpdateScene</title>
<path fill="none" stroke="black" d="M1289.87,-179.274C1333.74,-184.927 1402.03,-193.725 1458.37,-200.985"/>
<polygon fill="black" stroke="black" points="1458.02,-204.469 1468.38,-202.275 1458.91,-197.526 1458.02,-204.469"/>
</g>
<!-- onResized&#45;&gt;cleanAndUpdateScene -->
<g id="edge13" class="edge"><title>onResized&#45;&gt;cleanAndUpdateScene</title>
<path fill="none" stroke="black" d="M1290.18,-141.68C1331.97,-151.297 1395.76,-166.452 1450.69,-181.5 1463.11,-184.905 1476.3,-188.749 1488.98,-192.56"/>
<polygon fill="black" stroke="black" points="1487.97,-195.911 1498.56,-195.461 1490,-189.212 1487.97,-195.911"/>
</g>
<!-- cleanAndUpdateScene&#45;&gt;populateScene -->
<g id="edge16" class="edge"><title>cleanAndUpdateScene&#45;&gt;populateScene</title>
<path fill="none" stroke="black" d="M1637.21,-231.556C1648.48,-234.109 1660.02,-236.721 1671.13,-239.238"/>
<polygon fill="black" stroke="black" points="1670.67,-242.723 1681.19,-241.518 1672.21,-235.896 1670.67,-242.723"/>
</g>
<!-- initInteraction&#45;&gt;initRendering -->
<g id="edge15" class="edge"><title>initInteraction&#45;&gt;initRendering</title>
<path fill="none" stroke="green" stroke-dasharray="5,2" d="M1172.85,-251.587C1124.86,-247.889 1060.01,-246.264 1003.82,-256.5 993.581,-258.366 982.945,-261.478 972.908,-265.008"/>
<polygon fill="green" stroke="green" points="971.661,-261.738 963.501,-268.495 974.094,-268.302 971.661,-261.738"/>
<text text-anchor="middle" x="1079.43" y="-259.3" font-family="Courier,monospace" font-size="14.00" fill="green">on showApplication</text>
</g>
<!-- initInteraction&#45;&gt;cleanAndUpdateScene -->
<g id="edge14" class="edge"><title>initInteraction&#45;&gt;cleanAndUpdateScene</title>
<path fill="none" stroke="blue" stroke-dasharray="5,2" d="M1315.5,-249.34C1355.21,-243.583 1405.73,-236.211 1450.69,-229.5 1453.23,-229.12 1455.82,-228.733 1458.43,-228.342"/>
<polygon fill="blue" stroke="blue" points="1459.2,-231.764 1468.57,-226.815 1458.16,-224.842 1459.2,-231.764"/>
<text text-anchor="middle" x="1391.88" y="-250.3" font-family="Courier,monospace" font-size="14.00" fill="blue">on redrawScene</text>
</g>
</g>
</svg>
