<?xml version="1.0" encoding="UTF-8" standalone="no"?>
<!DOCTYPE svg PUBLIC "-//W3C//DTD SVG 1.1//EN"
 "http://www.w3.org/Graphics/SVG/1.1/DTD/svg11.dtd">
<!-- Generated by graphviz version 2.38.0 (20140413.2041)
 -->
<!-- Title: rendering_loop Pages: 1 -->
<svg width="1500pt" height="475pt"
 viewBox="0.00 0.00 1500.00 474.50" xmlns="http://www.w3.org/2000/svg" xmlns:xlink="http://www.w3.org/1999/xlink">
<g id="graph0" class="graph" transform="scale(1 1) rotate(0) translate(4 470.5)">
<title>rendering_loop</title>
<polygon fill="white" stroke="none" points="-4,4 -4,-470.5 1496,-470.5 1496,4 -4,4"/>
<text text-anchor="middle" x="746" y="-451.3" font-family="Helvetica,sans-Serif" font-size="14.00">Rendering&#45;Loop</text>
<g id="clust1" class="cluster"><title>cluster_key</title>
<polygon fill="none" stroke="black" points="8,-8 8,-244 801.909,-244 801.909,-8 8,-8"/>
<text text-anchor="middle" x="404.954" y="-228.8" font-family="Helvetica,sans-Serif" font-size="14.00">Legend</text>
</g>
<!-- functionBox -->
<g id="node1" class="node"><title>functionBox</title>
<polygon fill="none" stroke="black" points="550.276,-174 550.276,-210 667.092,-210 667.092,-174 550.276,-174"/>
<text text-anchor="middle" x="608.684" y="-187.8" font-family="Courier,monospace" font-size="14.00">functionName</text>
</g>
<!-- functionText -->
<g id="node2" class="node"><title>functionText</title>
<text text-anchor="middle" x="234.034" y="-191.8" font-family="Courier,monospace" font-size="14.00">JS Function</text>
</g>
<!-- funcA -->
<g id="node3" class="node"><title>funcA</title>
<polygon fill="none" stroke="black" points="470.068,-131 470.068,-167 528.075,-167 528.075,-131 470.068,-131"/>
<text text-anchor="middle" x="499.072" y="-144.8" font-family="Courier,monospace" font-size="14.00">funcA</text>
</g>
<!-- funcB -->
<g id="node4" class="node"><title>funcB</title>
<polygon fill="none" stroke="black" points="735.902,-131 735.902,-167 793.909,-167 793.909,-131 735.902,-131"/>
<text text-anchor="middle" x="764.905" y="-144.8" font-family="Courier,monospace" font-size="14.00">funcB</text>
</g>
<!-- funcA&#45;&gt;funcB -->
<g id="edge1" class="edge"><title>funcA&#45;&gt;funcB</title>
<path fill="none" stroke="black" d="M528.307,-149C575.913,-149 672.188,-149 725.756,-149"/>
<polygon fill="black" stroke="black" points="725.874,-152.5 735.873,-149 725.873,-145.5 725.874,-152.5"/>
</g>
<!-- funcCalling -->
<g id="node5" class="node"><title>funcCalling</title>
<text text-anchor="middle" x="234.034" y="-137.8" font-family="Courier,monospace" font-size="14.00">FuncA periodically calls FuncB</text>
</g>
<!-- funcAOnce -->
<g id="node6" class="node"><title>funcAOnce</title>
<polygon fill="none" stroke="black" points="470.068,-80 470.068,-116 528.075,-116 528.075,-80 470.068,-80"/>
<text text-anchor="middle" x="499.072" y="-93.8" font-family="Courier,monospace" font-size="14.00">funcA</text>
</g>
<!-- funcBOnce -->
<g id="node7" class="node"><title>funcBOnce</title>
<polygon fill="none" stroke="black" points="735.902,-80 735.902,-116 793.909,-116 793.909,-80 735.902,-80"/>
<text text-anchor="middle" x="764.905" y="-93.8" font-family="Courier,monospace" font-size="14.00">funcB</text>
</g>
<!-- funcAOnce&#45;&gt;funcBOnce -->
<g id="edge2" class="edge"><title>funcAOnce&#45;&gt;funcBOnce</title>
<path fill="none" stroke="black" stroke-dasharray="1,5" d="M528.307,-98C575.913,-98 672.188,-98 725.756,-98"/>
<polygon fill="black" stroke="black" points="725.874,-101.5 735.873,-98 725.873,-94.5001 725.874,-101.5"/>
</g>
<!-- funcCallingOnce -->
<g id="node8" class="node"><title>funcCallingOnce</title>
<text text-anchor="middle" x="234.034" y="-83.8" font-family="Courier,monospace" font-size="14.00">FuncA calls FuncB once on component (page) setup</text>
</g>
<!-- funcAListener -->
<g id="node9" class="node"><title>funcAListener</title>
<polygon fill="none" stroke="black" points="470.068,-36 470.068,-72 528.075,-72 528.075,-36 470.068,-36"/>
<text text-anchor="middle" x="499.072" y="-49.8" font-family="Courier,monospace" font-size="14.00">funcA</text>
</g>
<!-- funcBListener -->
<g id="node10" class="node"><title>funcBListener</title>
<polygon fill="none" stroke="black" points="735.902,-36 735.902,-72 793.909,-72 793.909,-36 735.902,-36"/>
<text text-anchor="middle" x="764.905" y="-49.8" font-family="Courier,monospace" font-size="14.00">funcB</text>
</g>
<!-- funcAListener&#45;&gt;funcBListener -->
<g id="edge3" class="edge"><title>funcAListener&#45;&gt;funcBListener</title>
<path fill="none" stroke="black" stroke-dasharray="5,2" d="M528.307,-54C575.913,-54 672.188,-54 725.756,-54"/>
<polygon fill="black" stroke="black" points="725.874,-57.5001 735.873,-54 725.873,-50.5001 725.874,-57.5001"/>
</g>
<!-- funcCallingListener -->
<g id="node11" class="node"><title>funcCallingListener</title>
<text text-anchor="middle" x="234.034" y="-29.8" font-family="Courier,monospace" font-size="14.00">FuncA starts listener with callback function FuncB</text>
</g>
<!-- start -->
<g id="node12" class="node"><title>start</title>
<ellipse fill="red" stroke="black" cx="234.034" cy="-341" rx="126.719" ry="18"/>
<text text-anchor="middle" x="234.034" y="-336.8" font-family="Courier,monospace" font-size="14.00">(Ember hook) didRender</text>
</g>
<!-- initRendering -->
<g id="node13" class="node"><title>initRendering</title>
<polygon fill="none" stroke="black" points="546.075,-384 546.075,-420 671.293,-420 671.293,-384 546.075,-384"/>
<text text-anchor="middle" x="608.684" y="-397.8" font-family="Courier,monospace" font-size="14.00">initRendering</text>
</g>
<!-- start&#45;&gt;initRendering -->
<g id="edge4" class="edge"><title>start&#45;&gt;initRendering</title>
<path fill="none" stroke="black" stroke-dasharray="1,5" d="M317.737,-354.538C383.141,-365.244 473.522,-380.039 535.907,-390.251"/>
<polygon fill="black" stroke="black" points="535.623,-393.751 546.057,-391.912 536.754,-386.843 535.623,-393.751"/>
</g>
<!-- initListener -->
<g id="node15" class="node"><title>initListener</title>
<polygon fill="none" stroke="black" points="550.276,-303 550.276,-339 667.092,-339 667.092,-303 550.276,-303"/>
<text text-anchor="middle" x="608.684" y="-316.8" font-family="Courier,monospace" font-size="14.00">initListener</text>
</g>
<!-- start&#45;&gt;initListener -->
<g id="edge5" class="edge"><title>start&#45;&gt;initListener</title>
<path fill="none" stroke="black" stroke-dasharray="1,5" d="M352.943,-334.672C414.614,-331.362 487.897,-327.429 539.994,-324.633"/>
<polygon fill="black" stroke="black" points="540.323,-328.12 550.121,-324.089 539.948,-321.13 540.323,-328.12"/>
</g>
<!-- populateScene -->
<g id="node14" class="node"><title>populateScene</title>
<polygon fill="none" stroke="black" points="1366.78,-408 1366.78,-444 1492,-444 1492,-408 1366.78,-408"/>
<text text-anchor="middle" x="1429.39" y="-421.8" font-family="Courier,monospace" font-size="14.00">populateScene</text>
</g>
<!-- initRendering&#45;&gt;populateScene -->
<g id="edge6" class="edge"><title>initRendering&#45;&gt;populateScene</title>
<path fill="none" stroke="black" stroke-dasharray="1,5" d="M671.699,-416.718C677.629,-417.915 683.564,-419.034 689.293,-420 763.922,-432.587 782.952,-434.771 858.518,-439 1037.51,-449.017 1248.55,-438.347 1356.64,-431.252"/>
<polygon fill="black" stroke="black" points="1357.03,-434.734 1366.78,-430.578 1356.57,-427.75 1357.03,-434.734"/>
</g>
<!-- initInteraction -->
<g id="node20" class="node"><title>initInteraction</title>
<polygon fill="none" stroke="blue" points="858.518,-393 858.518,-429 1000.54,-429 1000.54,-393 858.518,-393"/>
<text text-anchor="middle" x="929.528" y="-406.8" font-family="Courier,monospace" font-size="14.00">initInteraction</text>
</g>
<!-- initRendering&#45;&gt;initInteraction -->
<g id="edge7" class="edge"><title>initRendering&#45;&gt;initInteraction</title>
<path fill="none" stroke="blue" stroke-dasharray="1,5" d="M671.538,-403.746C721.917,-405.168 793.417,-407.186 848.214,-408.733"/>
<polygon fill="blue" stroke="blue" points="848.147,-412.232 858.242,-409.016 848.345,-405.235 848.147,-412.232"/>
</g>
<!-- onReSetupScene -->
<g id="node16" class="node"><title>onReSetupScene</title>
<polygon fill="none" stroke="black" points="862.718,-338 862.718,-374 996.337,-374 996.337,-338 862.718,-338"/>
<text text-anchor="middle" x="929.528" y="-351.8" font-family="Courier,monospace" font-size="14.00">onReSetupScene</text>
</g>
<!-- initListener&#45;&gt;onReSetupScene -->
<g id="edge8" class="edge"><title>initListener&#45;&gt;onReSetupScene</title>
<path fill="none" stroke="black" stroke-dasharray="5,2" d="M667.424,-327.338C719.312,-333.034 795.865,-341.437 852.677,-347.674"/>
<polygon fill="black" stroke="black" points="852.365,-351.16 862.688,-348.773 853.129,-344.202 852.365,-351.16"/>
</g>
<!-- onUpdated -->
<g id="node17" class="node"><title>onUpdated</title>
<polygon fill="none" stroke="black" points="883.722,-283 883.722,-319 975.334,-319 975.334,-283 883.722,-283"/>
<text text-anchor="middle" x="929.528" y="-296.8" font-family="Courier,monospace" font-size="14.00">onUpdated</text>
</g>
<!-- initListener&#45;&gt;onUpdated -->
<g id="edge9" class="edge"><title>initListener&#45;&gt;onUpdated</title>
<path fill="none" stroke="black" stroke-dasharray="5,2" d="M667.424,-317.378C725.999,-313.704 816.006,-308.058 873.564,-304.448"/>
<polygon fill="black" stroke="black" points="873.805,-307.94 883.566,-303.82 873.367,-300.953 873.805,-307.94"/>
</g>
<!-- onResized -->
<g id="node18" class="node"><title>onResized</title>
<polygon fill="none" stroke="black" points="883.722,-228 883.722,-264 975.334,-264 975.334,-228 883.722,-228"/>
<text text-anchor="middle" x="929.528" y="-241.8" font-family="Courier,monospace" font-size="14.00">onResized</text>
</g>
<!-- initListener&#45;&gt;onResized -->
<g id="edge10" class="edge"><title>initListener&#45;&gt;onResized</title>
<path fill="none" stroke="black" stroke-dasharray="5,2" d="M667.424,-307.418C725.999,-293.64 816.006,-272.468 873.564,-258.929"/>
<polygon fill="black" stroke="black" points="874.633,-262.273 883.566,-256.576 873.031,-255.459 874.633,-262.273"/>
</g>
<!-- cleanAndUpdateScene -->
<g id="node19" class="node"><title>cleanAndUpdateScene</title>
<polygon fill="none" stroke="black" points="1154.16,-338 1154.16,-374 1329.78,-374 1329.78,-338 1154.16,-338"/>
<text text-anchor="middle" x="1241.97" y="-351.8" font-family="Courier,monospace" font-size="14.00">cleanAndUpdateScene</text>
</g>
<!-- onReSetupScene&#45;&gt;cleanAndUpdateScene -->
<g id="edge11" class="edge"><title>onReSetupScene&#45;&gt;cleanAndUpdateScene</title>
<path fill="none" stroke="black" d="M996.365,-356C1039.24,-356 1095.9,-356 1143.9,-356"/>
<polygon fill="black" stroke="black" points="1144,-359.5 1154,-356 1144,-352.5 1144,-359.5"/>
</g>
<!-- onUpdated&#45;&gt;cleanAndUpdateScene -->
<g id="edge12" class="edge"><title>onUpdated&#45;&gt;cleanAndUpdateScene</title>
<path fill="none" stroke="black" d="M975.337,-308.939C1019.21,-316.712 1087.5,-328.81 1143.84,-338.792"/>
<polygon fill="black" stroke="black" points="1143.4,-342.268 1153.86,-340.566 1144.62,-335.375 1143.4,-342.268"/>
</g>
<!-- onResized&#45;&gt;cleanAndUpdateScene -->
<g id="edge13" class="edge"><title>onResized&#45;&gt;cleanAndUpdateScene</title>
<path fill="none" stroke="black" d="M975.731,-260.063C1017.58,-273.292 1081.41,-294.002 1136.16,-314 1153.17,-320.213 1171.55,-327.411 1188.09,-334.074"/>
<polygon fill="black" stroke="black" points="1187.02,-337.414 1197.6,-337.923 1189.65,-330.926 1187.02,-337.414"/>
</g>
<!-- cleanAndUpdateScene&#45;&gt;populateScene -->
<g id="edge16" class="edge"><title>cleanAndUpdateScene&#45;&gt;populateScene</title>
<path fill="none" stroke="black" d="M1290.72,-374.027C1315.17,-383.258 1345.13,-394.568 1370.85,-404.278"/>
<polygon fill="black" stroke="black" points="1369.89,-407.655 1380.48,-407.913 1372.36,-401.106 1369.89,-407.655"/>
</g>
<!-- initInteraction&#45;&gt;initRendering -->
<g id="edge15" class="edge"><title>initInteraction&#45;&gt;initRendering</title>
<path fill="none" stroke="green" stroke-dasharray="5,2" d="M873.629,-392.89C862.77,-390.025 851.373,-387.512 840.518,-386 773.949,-376.729 756.174,-379.346 689.293,-386 686.777,-386.25 684.222,-386.544 681.647,-386.874"/>
<polygon fill="green" stroke="green" points="681.051,-383.424 671.651,-388.311 682.047,-390.353 681.051,-383.424"/>
<text text-anchor="middle" x="764.905" y="-388.8" font-family="Courier,monospace" font-size="14.00" fill="green">on showApplication</text>
</g>
<!-- initInteraction&#45;&gt;cleanAndUpdateScene -->
<g id="edge14" class="edge"><title>initInteraction&#45;&gt;cleanAndUpdateScene</title>
<path fill="none" stroke="blue" stroke-dasharray="5,2" d="M1000.58,-398.588C1042.9,-391.091 1097.45,-381.427 1143.89,-373.2"/>
<polygon fill="blue" stroke="blue" points="1144.73,-376.604 1153.97,-371.413 1143.51,-369.712 1144.73,-376.604"/>
<text text-anchor="middle" x="1077.35" y="-397.8" font-family="Courier,monospace" font-size="14.00" fill="blue">on redrawScene</text>
</g>
</g>
</svg>
